<svg xmlns="http://www.w3.org/2000/svg" width="19.915" height="33.249" viewBox="0 0 19.915 33.249">
  <g id="Сгруппировать_1" data-name="Сгруппировать 1" transform="translate(-338.354 1295.991) rotate(-90)">
    <path id="Контур_1" data-name="Контур 1" d="M1191.082,305.334c0-1.564.112-3.658,3.075-3.832s4.213,3.832,4.213,3.832,1.285,4.683,9.228,4.582,9.036-3.054,9.692-4.582,1.34-3.425,3.895-3.832,3.146,3.832,3.146,3.832-.318,6.623-4.358,10.636-7.495,5.383-11.8,5.417-7.091-.135-11.364-4.148A20.332,20.332,0,0,1,1191.082,305.334Z" transform="translate(71.659 36.879)" fill="#4f544f"/>
    <circle id="Эллипс_1" data-name="Эллипс 1" cx="0.821" cy="0.821" r="0.821" transform="translate(1265.416 341.346)" fill="#fff"/>
    <circle id="Эллипс_4" data-name="Эллипс 4" cx="0.821" cy="0.821" r="0.821" transform="translate(1291.679 341.346)" fill="#fff"/>
    <circle id="Эллипс_2" data-name="Эллипс 2" cx="0.821" cy="0.821" r="0.821" transform="translate(1269.519 348.733)" fill="#fff"/>
    <circle id="Эллипс_3" data-name="Эллипс 3" cx="0.821" cy="0.821" r="0.821" transform="translate(1287.575 348.733)" fill="#fff"/>
    <circle id="Эллипс_5" data-name="Эллипс 5" cx="0.821" cy="0.821" r="0.821" transform="translate(1278.547 352.836)" fill="#fff"/>
  </g>
</svg>
